<svg xmlns="http://www.w3.org/2000/svg" viewBox="0 0 1200 900" width="1200" height="900" role="presentation">
<defs><linearGradient id="g21kl" x1="0" y1="0" x2="0" y2="1">
<stop offset="0" stop-color="#9db0a3"/><stop offset="1" stop-color="#1d3a2c"/>
</linearGradient></defs>
<rect width="1200" height="900" fill="url(#g21kl)"/>
<rect x="0" y="0" width="145.4" height="900" fill="#0d1f17" opacity="0.79"/><rect x="144.9" y="0" width="204.23" height="900" fill="#4d7360" opacity="0.52"/><rect x="348.63" y="0" width="226.91" height="900" fill="#2e5442" opacity="0.49"/><rect x="575.05" y="0" width="54.42" height="900" fill="#9c3517" opacity="0.9"/><rect x="628.97" y="0" width="155.93" height="900" fill="#1d3a2c" opacity="0.62"/><rect x="784.39" y="0" width="227.05" height="900" fill="#0d1f17" opacity="0.56"/><rect x="1010.94" y="0" width="189.56" height="900" fill="#4d7360" opacity="0.8"/><rect x="0" y="225" width="1200" height="7.2" fill="#9db0a3" opacity="0.26"/><rect x="0" y="232.2" width="1200" height="3.6" fill="#0d1f17" opacity="0.22"/><rect x="0" y="450" width="1200" height="7.2" fill="#9db0a3" opacity="0.26"/><rect x="0" y="457.2" width="1200" height="3.6" fill="#0d1f17" opacity="0.22"/><rect x="0" y="675" width="1200" height="7.2" fill="#9db0a3" opacity="0.26"/><rect x="0" y="682.2" width="1200" height="3.6" fill="#0d1f17" opacity="0.22"/><rect x="0" y="774" width="1200" height="126" fill="#0d1f17" opacity="0.5"/>
</svg>
