<svg xmlns="http://www.w3.org/2000/svg" viewBox="0 0 1600 1200" width="1600" height="1200" role="presentation">
<defs><linearGradient id="g19pi" x1="0.17" y1="0" x2="0.83" y2="1">
<stop offset="0" stop-color="#9db0a3"/><stop offset="1" stop-color="#1d3a2c"/>
</linearGradient></defs>
<rect width="1600" height="1200" fill="url(#g19pi)"/>
<rect x="125.84" y="125.84" width="313.18" height="294.86" fill="#4d7360" opacity="0.5"/><rect x="125.84" y="125.84" width="156.59" height="294.86" fill="#0d1f17" opacity="0.7"/><rect x="476.49" y="131.44" width="301.98" height="283.66" fill="none" stroke="#0d1f17" stroke-width="5.6" opacity="0.75"/><rect x="815.94" y="125.84" width="313.18" height="294.86" fill="#0d1f17" opacity="0.95"/><rect x="1166.58" y="131.44" width="301.98" height="283.66" fill="none" stroke="#0d1f17" stroke-width="5.6" opacity="0.75"/><rect x="131.44" y="458.17" width="301.98" height="283.66" fill="none" stroke="#0d1f17" stroke-width="5.6" opacity="0.75"/><rect x="470.89" y="452.57" width="313.18" height="294.86" fill="#0d1f17" opacity="0.88"/><rect x="821.54" y="458.17" width="301.98" height="283.66" fill="none" stroke="#0d1f17" stroke-width="5.6" opacity="0.75"/><rect x="1160.98" y="452.57" width="313.18" height="294.86" fill="#4d7360" opacity="0.5"/><rect x="1160.98" y="452.57" width="156.59" height="294.86" fill="#0d1f17" opacity="0.7"/><rect x="125.84" y="779.3" width="313.18" height="294.86" fill="#9c3517" opacity="0.9"/><rect x="470.89" y="779.3" width="313.18" height="294.86" fill="#4d7360" opacity="0.5"/><rect x="627.48" y="779.3" width="156.59" height="294.86" fill="#0d1f17" opacity="0.7"/><rect x="821.54" y="784.9" width="301.98" height="283.66" fill="none" stroke="#0d1f17" stroke-width="5.6" opacity="0.75"/><rect x="1166.58" y="784.9" width="301.98" height="283.66" fill="none" stroke="#0d1f17" stroke-width="5.6" opacity="0.75"/>
</svg>
