<svg xmlns="http://www.w3.org/2000/svg" viewBox="0 0 1600 1200" width="1600" height="1200" role="presentation">
<defs><linearGradient id="g1k1" x1="0.25" y1="0" x2="0.75" y2="1">
<stop offset="0" stop-color="#9db0a3"/><stop offset="1" stop-color="#1d3a2c"/>
</linearGradient></defs>
<rect width="1600" height="1200" fill="url(#g1k1)"/>
<rect x="161.97" y="161.97" width="217.05" height="183.23" fill="#0d1f17" opacity="0.61"/><rect x="432.32" y="167.57" width="205.85" height="172.03" fill="none" stroke="#0d1f17" stroke-width="5.6" opacity="0.75"/><rect x="691.48" y="161.97" width="217.05" height="183.23" fill="#0d1f17" opacity="0.7"/><rect x="956.23" y="161.97" width="217.05" height="183.23" fill="#0d1f17" opacity="0.84"/><rect x="1226.59" y="167.57" width="205.85" height="172.03" fill="none" stroke="#0d1f17" stroke-width="5.6" opacity="0.75"/><rect x="161.97" y="392.91" width="217.05" height="183.23" fill="#0d1f17" opacity="0.52"/><rect x="426.72" y="392.91" width="217.05" height="183.23" fill="#0d1f17" opacity="0.95"/><rect x="691.48" y="392.91" width="217.05" height="183.23" fill="#4d7360" opacity="0.5"/><rect x="800" y="392.91" width="108.52" height="183.23" fill="#0d1f17" opacity="0.7"/><rect x="956.23" y="392.91" width="217.05" height="183.23" fill="#4d7360" opacity="0.5"/><rect x="956.23" y="392.91" width="108.52" height="183.23" fill="#0d1f17" opacity="0.7"/><rect x="1220.99" y="392.91" width="217.05" height="183.23" fill="#0d1f17" opacity="0.76"/><rect x="167.57" y="629.45" width="205.85" height="172.03" fill="none" stroke="#0d1f17" stroke-width="5.6" opacity="0.75"/><rect x="426.72" y="623.85" width="217.05" height="183.23" fill="#9c3517" opacity="0.9"/><rect x="691.48" y="623.85" width="217.05" height="183.23" fill="#0d1f17" opacity="0.73"/><rect x="956.23" y="623.85" width="217.05" height="183.23" fill="#0d1f17" opacity="0.56"/><rect x="1220.99" y="623.85" width="217.05" height="183.23" fill="#4d7360" opacity="0.5"/><rect x="1220.99" y="623.85" width="217.05" height="91.62" fill="#0d1f17" opacity="0.7"/><rect x="161.97" y="854.8" width="217.05" height="183.23" fill="#0d1f17" opacity="0.7"/><rect x="432.32" y="860.4" width="205.85" height="172.03" fill="none" stroke="#0d1f17" stroke-width="5.6" opacity="0.75"/><rect x="697.08" y="860.4" width="205.85" height="172.03" fill="none" stroke="#0d1f17" stroke-width="5.6" opacity="0.75"/><rect x="956.23" y="854.8" width="217.05" height="183.23" fill="#4d7360" opacity="0.5"/><rect x="1064.76" y="854.8" width="108.52" height="183.23" fill="#0d1f17" opacity="0.7"/><rect x="1220.99" y="854.8" width="217.05" height="183.23" fill="#0d1f17" opacity="0.62"/>
</svg>
