<svg xmlns="http://www.w3.org/2000/svg" viewBox="0 0 1600 1200" width="1600" height="1200" role="presentation">
<defs><linearGradient id="g1d0m" x1="0.13" y1="0" x2="0.87" y2="1">
<stop offset="0" stop-color="#c2cdc2"/><stop offset="1" stop-color="#2e5442"/>
</linearGradient></defs>
<rect width="1600" height="1200" fill="url(#g1d0m)"/>
<line x1="0" y1="75" x2="1600" y2="58.1" stroke="#12261d" stroke-width="3.52" opacity="0.42"/><line x1="0" y1="150" x2="1600" y2="133.1" stroke="#12261d" stroke-width="3.52" opacity="0.42"/><line x1="0" y1="225" x2="1600" y2="208.1" stroke="#12261d" stroke-width="3.52" opacity="0.42"/><line x1="0" y1="300" x2="1600" y2="283.1" stroke="#12261d" stroke-width="3.52" opacity="0.42"/><line x1="0" y1="375" x2="1600" y2="358.1" stroke="#12261d" stroke-width="3.52" opacity="0.42"/><line x1="0" y1="450" x2="1600" y2="433.1" stroke="#12261d" stroke-width="3.52" opacity="0.42"/><line x1="0" y1="525" x2="1600" y2="508.1" stroke="#12261d" stroke-width="3.52" opacity="0.42"/><line x1="0" y1="600" x2="1600" y2="583.1" stroke="#12261d" stroke-width="3.52" opacity="0.42"/><line x1="0" y1="675" x2="1600" y2="658.1" stroke="#12261d" stroke-width="3.52" opacity="0.42"/><line x1="0" y1="750" x2="1600" y2="733.1" stroke="#12261d" stroke-width="3.52" opacity="0.42"/><line x1="0" y1="825" x2="1600" y2="808.1" stroke="#12261d" stroke-width="3.52" opacity="0.42"/><line x1="0" y1="900" x2="1600" y2="883.1" stroke="#12261d" stroke-width="3.52" opacity="0.42"/><line x1="0" y1="975" x2="1600" y2="958.1" stroke="#12261d" stroke-width="3.52" opacity="0.42"/><line x1="0" y1="1050" x2="1600" y2="1033.1" stroke="#12261d" stroke-width="3.52" opacity="0.42"/><line x1="0" y1="1125" x2="1600" y2="1108.1" stroke="#12261d" stroke-width="3.52" opacity="0.42"/><path d="M0,0 H1600 V1200 H0 Z M 188.06 233.25 L 1361.49 172.8 L 1317.31 516.76 L 227.78 579.09 Z" fill="#0d1f17" fill-rule="evenodd" opacity="0.16"/><polygon points="188.06,233.25 1361.49,172.8 1317.31,516.76 227.78,579.09" fill="#c2cdc2" opacity="0.29"/><polygon points="188.06,233.25 1361.49,172.8 1317.31,516.76 227.78,579.09" fill="none" stroke="#12261d" stroke-width="8" stroke-linejoin="round" opacity="0.9"/><rect x="175.26" y="220.45" width="25.6" height="25.6" fill="#12261d"/><rect x="1348.69" y="160" width="25.6" height="25.6" fill="#12261d"/><rect x="1304.51" y="503.96" width="25.6" height="25.6" fill="#12261d"/><rect x="214.98" y="566.29" width="25.6" height="25.6" fill="#9c3517"/><polygon points="177.36,659.95 1341.09,600.85 1366.86,975.42 233.81,1039.63" fill="#c2cdc2" opacity="0.33"/><polygon points="177.36,659.95 1341.09,600.85 1366.86,975.42 233.81,1039.63" fill="none" stroke="#12261d" stroke-width="8" stroke-linejoin="round" opacity="0.9"/><rect x="164.56" y="647.15" width="25.6" height="25.6" fill="#12261d"/><rect x="1328.29" y="588.05" width="25.6" height="25.6" fill="#12261d"/><rect x="1354.06" y="962.62" width="25.6" height="25.6" fill="#12261d"/><rect x="221.01" y="1026.83" width="25.6" height="25.6" fill="#12261d"/>
</svg>
