<svg xmlns="http://www.w3.org/2000/svg" viewBox="0 0 1600 1200" width="1600" height="1200" role="presentation">
<defs><linearGradient id="g20i1" x1="0.13" y1="0" x2="0.87" y2="1">
<stop offset="0" stop-color="#9db0a3"/><stop offset="1" stop-color="#1d3a2c"/>
</linearGradient></defs>
<rect width="1600" height="1200" fill="url(#g20i1)"/>
<rect x="107.42" y="107.42" width="316.75" height="302.13" fill="#0d1f17" opacity="0.62"/><rect x="463.56" y="107.42" width="316.75" height="302.13" fill="#4d7360" opacity="0.5"/><rect x="463.56" y="107.42" width="158.38" height="302.13" fill="#0d1f17" opacity="0.7"/><rect x="819.69" y="107.42" width="316.75" height="302.13" fill="#0d1f17" opacity="0.63"/><rect x="1181.43" y="113.02" width="305.55" height="290.93" fill="none" stroke="#0d1f17" stroke-width="5.6" opacity="0.75"/><rect x="107.42" y="448.94" width="316.75" height="302.13" fill="#9c3517" opacity="0.9"/><rect x="463.56" y="448.94" width="316.75" height="302.13" fill="#0d1f17" opacity="0.58"/><rect x="819.69" y="448.94" width="316.75" height="302.13" fill="#0d1f17" opacity="0.88"/><rect x="1181.43" y="454.54" width="305.55" height="290.93" fill="none" stroke="#0d1f17" stroke-width="5.6" opacity="0.75"/><rect x="107.42" y="790.45" width="316.75" height="302.13" fill="#0d1f17" opacity="0.83"/><rect x="469.16" y="796.05" width="305.55" height="290.93" fill="none" stroke="#0d1f17" stroke-width="5.6" opacity="0.75"/><rect x="819.69" y="790.45" width="316.75" height="302.13" fill="#4d7360" opacity="0.5"/><rect x="819.69" y="790.45" width="316.75" height="151.06" fill="#0d1f17" opacity="0.7"/><rect x="1181.43" y="796.05" width="305.55" height="290.93" fill="none" stroke="#0d1f17" stroke-width="5.6" opacity="0.75"/>
</svg>
