<svg xmlns="http://www.w3.org/2000/svg" viewBox="0 0 1600 1200" width="1600" height="1200" role="presentation">
<defs><linearGradient id="g3y3" x1="0" y1="0" x2="0" y2="1">
<stop offset="0" stop-color="#f2f3ef"/><stop offset="1" stop-color="#6e8c7a"/>
</linearGradient></defs>
<rect width="1600" height="1200" fill="url(#g3y3)"/>
<line x1="0" y1="100" x2="1600" y2="116.9" stroke="#12261d" stroke-width="3.52" opacity="0.42"/><line x1="0" y1="200" x2="1600" y2="216.9" stroke="#12261d" stroke-width="3.52" opacity="0.42"/><line x1="0" y1="300" x2="1600" y2="316.9" stroke="#12261d" stroke-width="3.52" opacity="0.42"/><line x1="0" y1="400" x2="1600" y2="416.9" stroke="#12261d" stroke-width="3.52" opacity="0.42"/><line x1="0" y1="500" x2="1600" y2="516.9" stroke="#12261d" stroke-width="3.52" opacity="0.42"/><line x1="0" y1="600" x2="1600" y2="616.9" stroke="#12261d" stroke-width="3.52" opacity="0.42"/><line x1="0" y1="700" x2="1600" y2="716.9" stroke="#12261d" stroke-width="3.52" opacity="0.42"/><line x1="0" y1="800" x2="1600" y2="816.9" stroke="#12261d" stroke-width="3.52" opacity="0.42"/><line x1="0" y1="900" x2="1600" y2="916.9" stroke="#12261d" stroke-width="3.52" opacity="0.42"/><line x1="0" y1="1000" x2="1600" y2="1016.9" stroke="#12261d" stroke-width="3.52" opacity="0.42"/><line x1="0" y1="1100" x2="1600" y2="1116.9" stroke="#12261d" stroke-width="3.52" opacity="0.42"/><path d="M0,0 H1600 V1200 H0 Z M 255.1 208.85 L 1437 199.42 L 1336.36 965.25 L 317.3 1061.09 Z" fill="#0d1f17" fill-rule="evenodd" opacity="0.16"/><polygon points="255.1,208.85 1437,199.42 1336.36,965.25 317.3,1061.09" fill="#f2f3ef" opacity="0.3"/><polygon points="255.1,208.85 1437,199.42 1336.36,965.25 317.3,1061.09" fill="none" stroke="#12261d" stroke-width="8" stroke-linejoin="round" opacity="0.9"/><rect x="240.7" y="194.45" width="28.8" height="28.8" fill="#12261d"/><rect x="1422.6" y="185.02" width="28.8" height="28.8" fill="#9c3517"/><rect x="1321.96" y="950.85" width="28.8" height="28.8" fill="#12261d"/><rect x="302.9" y="1046.69" width="28.8" height="28.8" fill="#12261d"/>
</svg>
